# xmcd CD database file
#
# Track frame offsets:
#	150
#	6442
#	27130
#	49425
#	68407
#	87947
#	106494
#	125166
#	145130
#	162886
#	176020
#	194483
#	209045
#	230989
#
# Disc length: 3366 seconds
#
# Revision: 5
# Processed by: cddbd v1.4PL0 Copyright (c) Steve Scherf et al.
# Submitted via: CDex 1.51
#
DISCID=d20d240e
DTITLE=Jay Z - The Black Album
DYEAR=2003
DGENRE=Hip-Hop
TTITLE0=Interlude
TTITLE1=December 4th
TTITLE2=What More Can I Say
TTITLE3=Encore
TTITLE4=Change Clothes
TTITLE5=Dirt Off Your Shoulder
TTITLE6=Threat
TTITLE7=Moment of Clarity
TTITLE8=99 Problems
TTITLE9=Interlude
TTITLE10=Justify My Thug
TTITLE11=Lucifer
TTITLE12=Allure
TTITLE13=My First Song
EXTD=YEAR: 2003
EXTT0=
EXTT1=
EXTT2=
EXTT3=
EXTT4=
EXTT5=
EXTT6=
EXTT7=
EXTT8=
EXTT9=
EXTT10=
EXTT11=
EXTT12=
EXTT13=
PLAYORDER=
